<?xml version="1.0" encoding="UTF-8"?>
<svg version="1.1" viewBox="0 0 1691 2048" width="470" height="569" xmlns="http://www.w3.org/2000/svg">
<path transform="translate(0)" d="m0 0h1691v2048h-1691z" fill="#F8F8F8"/>
<path transform="translate(747,486)" d="m0 0h16l11 4 11 8 7 10 4 10 2 10v259l3 8 6 4h11l6-4 3-6 1-100 4-13 6-10 8-8 12-6 3-1h18l11 4 9 7 7 8 5 10 2 9 1 110 3 9 5 5 3 1h8l6-3 4-6 1-75 2-12 4-9 6-9 7-6 14-7 5-1h12l10 3 10 6 8 8 7 14 1 4 1 34v73l3 9 5 4 3 1h8l6-3 4-5 2-70 4-13 8-11 12-9 8-3h18l11 4 9 7 6 7 7 14 1 4v222l-4 27-6 23-7 19-10 21-10 16-13 17-14 15-8 8-14 11-18 12-25 13-25 9-24 6-20 3-11 1h-27l-22-3-24-5-23-7-21-9-17-9-10-7-19-14-16-15-11-11-7-8-13-16-11-14-14-17-8-10-11-14-14-18-13-16-11-14-13-16-8-10-11-14-14-18-13-16-10-13-12-15-9-14-3-8-1-6v-9l2-11 7-14 6-7 8-6 11-5 5-1h14l12 4 11 7 43 43 7 8 14 15 7 8 7 7 6 4v-321l1-48 4-13 6-9 5-6 11-7z" fill="#8D535A"/>
<path transform="translate(767,1326)" d="m0 0h101l15 2 15 4 10 4 11 7 9 8 7 11 4 10 2 10v17l-3 12-6 12-9 10-6 7 12 8 8 7 8 11 5 11 2 8v24l-4 15-6 10-9 10-14 9-16 6-22 4-15 1h-105l-9-4-7-8-3-9v-194l2-8 4-7 8-6z" fill="#8F555A"/>
<path transform="translate(747,368)" d="m0 0h11l19 2 17 4 19 7 5 3 12 25 10 14 11 11 14 9 16 7 6 3 4 8 6 19 3 21v18l-3 21-6 21-8 16-7 12-10 13-7 8-8 7-14 10-5 3h-3l-1-84-1-29-5-17-7-13-9-11-10-8-15-8-14-4h-24l-12 3-17 8-10 8-9 10-8 14-4 13-1 8-1 113-5-2-13-10-12-11-7-7-12-17-11-21-6-18-4-21-1-19 2-18 4-18 8-21 9-16 12-16 14-14 10-8 15-10 17-8 15-5 20-4z" fill="#8E545A"/>
<path transform="translate(742,276)" d="m0 0h26l21 2 25 5 27 8-1 4-10 15-8 16-3 8-6-1-20-5-22-3h-33l-22 3-21 5-19 8-21 11-12 8-14 11-17 17-13 17-10 16-9 19-7 21-5 25-1 12v28l3 22 5 20 7 19 11 21 12 17 9 11 18 18 15 11 21 12 13 7v49l-2 1-21-8-16-8-16-9-19-14-13-11-19-19-11-14-7-10-8-13-12-23-8-21-6-24-4-26-1-14v-16l2-24 5-26 8-26 8-18 10-19 10-15 10-13 10-11 7-8 13-12 17-13 16-10 10-6 22-10 20-7 18-5 26-4z" fill="#8E555A"/>
<path transform="translate(580,1322)" d="m0 0h22l8 3 6 4 8 9 8 16 13 30 15 33 13 30 19 42 16 35 4 12 1 8-3 9-5 7-8 5-7 2h-8l-10-3-10-9-7-14-11-27-105-1-2 6-10 24-7 14-8 7-10 3-12-1-9-5-6-7-3-8 1-13 6-15 9-19 11-26 12-27 13-30 19-43 10-23 6-12 7-9 8-5z" fill="#8E545A"/>
<path transform="translate(304,1327)" d="m0 0h168l10 4 5 6 3 11v8l-3 9-5 6-10 4-12 1h-41l-3-1v168l-4 11-7 8-8 4h-15l-8-3-8-7-4-7-2-11v-162h-53l-9-3-6-5-4-6-1-3v-15l5-10 8-6z" fill="#8F555A"/>
<path transform="translate(1223,1327)" d="m0 0h169l8 4 7 8 2 6v13l-3 7-8 7-7 3-10 1h-46v165l-2 9-6 9-8 6-4 1h-15l-10-5-7-8-3-8-1-169h-53l-9-3-6-5-4-7-1-4v-11l3-9 6-7z" fill="#8E545A"/>
<path transform="translate(1144,1325)" d="m0 0h12l11 4 5 5 5 8 1 4v197l-3 9-4 6-6 5-7 3h-15l-10-5-8-9-2-6-1-45v-143l1-16 4-7 8-7z" fill="#8F555A"/>
<path transform="translate(904,295)" d="m0 0h9l16 3 16 8 11 9 8 11 6 12 3 12v20l-3 11-7 14-9 11-10 8-14 7-16 3h-11l-17-4-11-6-9-7-7-8-7-11-5-15-1-7v-14l3-13 8-16 9-10 8-7 14-7z" fill="#D9A745"/>
<path transform="translate(977,427)" d="m0 0 2 2 9 37 3 18 1 11v30l-3 24-5 23-6 20-10 23-12 22-11 16-6 8-4-2-7-11-11-11-11-8 1-6 10-15 11-21 7-19 5-19 3-18v-39l-4-24-4-13 1-4 12-5 11-6z" fill="#8F555A"/>
<path transform="translate(1144,1204)" d="m0 0h10l10 2 12 6 7 6 8 11 4 10 1 4v18l-4 11-6 9-7 8-10 6-9 3-13 1-10-2-9-4-9-6-7-8-6-12-2-7v-18l4-12 6-9 7-7 10-6 7-3z" fill="#D9A745"/>
<path transform="translate(798,1465)" d="m0 0 76 1 11 4 8 7 3 6 1 4v10l-4 10-7 6-13 4-73 1-3-2v-50z" fill="#F8F8F8"/>
<path transform="translate(996,1422)" d="m0 0h67l9 3 8 8 3 10v8l-3 9-6 7-9 4-49 1-23-1-8-4-6-7-3-10v-7l3-9 7-8 6-3z" fill="#8F555A"/>
<path transform="translate(797,1372)" d="m0 0h66l9 2 9 6 4 5 2 5v11l-5 10-8 6-5 2-9 1h-63z" fill="#F8F8F8"/>
<path transform="translate(590,1386)" d="m0 0 3 1 18 46 12 29 1 4h-65l1-5 13-32 11-27z" fill="#F8F8F8"/>
</svg>
